<?xml version="1.0" encoding="UTF-8" standalone="no"?>
<!-- Created with Inkscape (http://www.inkscape.org/) -->

<svg
   xmlns:dc="http://purl.org/dc/elements/1.1/"
   xmlns:cc="http://creativecommons.org/ns#"
   xmlns:rdf="http://www.w3.org/1999/02/22-rdf-syntax-ns#"
   xmlns:svg="http://www.w3.org/2000/svg"
   xmlns="http://www.w3.org/2000/svg"
   xmlns:sodipodi="http://sodipodi.sourceforge.net/DTD/sodipodi-0.dtd"
   xmlns:inkscape="http://www.inkscape.org/namespaces/inkscape"
   width="15.615085mm"
   height="3.3309958mm"
   viewBox="0 0 15.615085 3.3309958"
   version="1.1"
   id="svg2660"
   inkscape:version="0.92.3 (2405546, 2018-03-11)"
   sodipodi:docname="Etal-expo-accent-vector.svg">
  <defs
     id="defs2654">
    <clipPath
       clipPathUnits="userSpaceOnUse"
       id="clipPath3005-9-9-0-1-0">
      <rect
         style="opacity:1;vector-effect:none;fill:#916f6f;fill-opacity:1;fill-rule:nonzero;stroke:none;stroke-width:5.03999996;stroke-linecap:butt;stroke-linejoin:round;stroke-miterlimit:4;stroke-dasharray:none;stroke-dashoffset:0;stroke-opacity:1"
         id="rect3007-6-3-2-5-0"
         width="15.80761"
         height="7.4712663"
         x="38.221386"
         y="118.55489" />
    </clipPath>
  </defs>
  <sodipodi:namedview
     id="base"
     pagecolor="#ffffff"
     bordercolor="#666666"
     borderopacity="1.0"
     inkscape:pageopacity="0.0"
     inkscape:pageshadow="2"
     inkscape:zoom="4.042282"
     inkscape:cx="-42.455395"
     inkscape:cy="-63.406356"
     inkscape:document-units="mm"
     inkscape:current-layer="g856"
     showgrid="false"
     fit-margin-top="0"
     fit-margin-left="0"
     fit-margin-right="0"
     fit-margin-bottom="0"
     inkscape:window-width="1920"
     inkscape:window-height="1017"
     inkscape:window-x="-8"
     inkscape:window-y="-8"
     inkscape:window-maximized="1" />
  <metadata
     id="metadata2657">
    <rdf:RDF>
      <cc:Work
         rdf:about="">
        <dc:format>image/svg+xml</dc:format>
        <dc:type
           rdf:resource="http://purl.org/dc/dcmitype/StillImage" />
        <dc:title></dc:title>
      </cc:Work>
    </rdf:RDF>
  </metadata>
  <g
     inkscape:label="Calque 1"
     inkscape:groupmode="layer"
     id="layer1"
     transform="translate(-60.926776,-128.72607)">
    <g
       id="g856"
       transform="translate(96.909404,-67.949927)">
      <g
         aria-label="ETAL EXPO"
         style="font-style:normal;font-variant:normal;font-weight:normal;font-stretch:normal;font-size:3.73344731px;line-height:1.99998629px;font-family:MostraNuova;-inkscape-font-specification:'MostraNuova, Normal';font-variant-ligatures:normal;font-variant-caps:normal;font-variant-numeric:normal;font-feature-settings:normal;text-align:start;letter-spacing:0px;word-spacing:0px;writing-mode:lr-tb;text-anchor:start;fill:#e3dbdb;fill-opacity:1;stroke:none;stroke-width:0.07999945"
         id="text4587-5-9-0-7-7-9-6">
        <path
           d="m -35.982628,197.39732 h 1.108834 v 0.25387 h -0.854959 v 0.89603 h 0.854959 v 0.25387 h -0.854959 v 0.89976 h 0.854959 v 0.25388 h -1.108834 z"
           style=""
           id="path819" />
        <path
           d="m -33.779777,199.95473 h -0.253874 v -2.30354 h -0.552551 v -0.25387 h 1.362709 v 0.25387 h -0.556284 z"
           style=""
           id="path821" />
        <path
           d="m -32.853357,199.58512 -0.138138,0.36961 h -0.272541 l 1.011764,-2.63582 1.011764,2.63582 h -0.272542 l -0.138137,-0.36961 z m 1.120034,-0.20908 -0.518949,-1.37391 -0.518949,1.37391 z"
           style=""
           id="path823" />
        <path
           d="m -30.85643,197.39732 h 0.253875 v 2.30353 h 0.854959 v 0.25388 h -1.108834 z"
           style=""
           id="path825" />
        <path
           d="m -28.318852,197.39732 h 1.108834 v 0.25387 h -0.85496 v 0.89603 h 0.85496 v 0.25387 h -0.85496 v 0.89976 h 0.85496 v 0.25388 h -1.108834 z"
           style=""
           id="path827" />
        <path
           d="m -26.015199,198.9019 -0.638419,1.05283 h -0.294943 l 0.784024,-1.29551 -0.761623,-1.2619 h 0.294942 l 0.616019,1.01549 0.612286,-1.01549 h 0.294942 l -0.761623,1.2619 0.784024,1.29551 h -0.294943 z"
           style=""
           id="path829" />
        <path
           d="m -24.419033,199.16697 v 0.78776 h -0.253875 v -2.55741 h 0.392012 q 0.238941,0 0.440547,0.11947 0.20534,0.11947 0.32481,0.32481 0.11947,0.2016 0.11947,0.44054 0,0.23894 -0.11947,0.44428 -0.11947,0.20161 -0.32481,0.32108 -0.201606,0.11947 -0.440547,0.11947 z m 0,-1.51578 v 1.26191 h 0.138137 q 0.171739,0 0.31361,-0.0859 0.145604,-0.0859 0.231474,-0.22774 0.08587,-0.14561 0.08587,-0.31735 0,-0.17174 -0.08587,-0.31361 -0.08587,-0.1456 -0.231474,-0.23147 -0.141871,-0.0859 -0.31361,-0.0859 z"
           style=""
           id="path831" />
        <path
           d="m -21.700384,200.007 q -0.362144,0 -0.668287,-0.17921 -0.306142,-0.17921 -0.485348,-0.48161 -0.179205,-0.30615 -0.179205,-0.66829 0,-0.36215 0.179205,-0.66829 0.179206,-0.30614 0.485348,-0.48535 0.306143,-0.1792 0.668287,-0.1792 0.362145,0 0.668287,0.1792 0.306143,0.17921 0.485349,0.48535 0.179205,0.30614 0.179205,0.66829 0,0.36214 -0.179205,0.66829 -0.179206,0.3024 -0.485349,0.48161 -0.306142,0.17921 -0.668287,0.17921 z m 0,-0.26135 q 0.291209,0 0.533883,-0.14187 0.246408,-0.1456 0.388279,-0.38828 0.145604,-0.2464 0.145604,-0.53761 0,-0.29121 -0.145604,-0.53762 -0.141871,-0.24641 -0.388279,-0.38828 -0.242674,-0.1456 -0.533883,-0.1456 -0.291209,0 -0.537616,0.1456 -0.242674,0.14187 -0.388279,0.38828 -0.141871,0.24641 -0.141871,0.53762 0,0.29121 0.141871,0.53761 0.145605,0.24268 0.388279,0.38828 0.246407,0.14187 0.537616,0.14187 z"
           style=""
           id="path833" />
      </g>
      <path
         transform="matrix(-0.07266436,0.07139394,-0.07959931,-0.08101571,-22.638085,203.44513)"
         style="opacity:1;vector-effect:none;fill:#f58a00;fill-opacity:1;fill-rule:nonzero;stroke:none;stroke-width:5.03999996;stroke-linecap:butt;stroke-linejoin:round;stroke-miterlimit:4;stroke-dasharray:none;stroke-dashoffset:0;stroke-opacity:1"
         clip-path="url(#clipPath3005-9-9-0-1-0)"
         d="m 48.714614,118.60219 a 3.5590584,3.5590584 0 0 1 -3.559058,3.55906 3.5590584,3.5590584 0 0 1 -3.559059,-3.55906 3.5590584,3.5590584 0 0 1 3.559059,-3.55906 3.5590584,3.5590584 0 0 1 3.559058,3.55906 z"
         id="path2999-9-8-8-8-5" />
    </g>
  </g>
</svg>
